# xmcd
#
# Track frame offsets: 
#        300
#        19131
#        41984
#        63239
#        90715
#        110770
#        126889
#        140384
#        159988
#
# Disc length: 2402 seconds
#
# Revision: 3
# Processed by: cddbd v1.5.2PL0 Copyright (c) Steve Scherf et al.
# Submitted via: ExactAudioCopy v1.0b1
#
DISCID=7b095e09
DTITLE=Byther Smith - Housefire
DYEAR=1984
DGENRE=General Blues
TTITLE0=Money Tree
TTITLE1=Live On And Sing The Blues
TTITLE2=Martha Dear
TTITLE3=Look All Around You
TTITLE4=The Man Wants Me Dead
TTITLE5=Knockdown
TTITLE6=Wait And See
TTITLE7=Love Me Like I Love You
TTITLE8=Here I Am
EXTD=CD BB 9503\n\nSubmitted 7/2/97\n[Jmccoy@efn.org]
EXTT0=
EXTT1=
EXTT2=
EXTT3=
EXTT4=
EXTT5=
EXTT6=
EXTT7=
EXTT8=
PLAYORDER=
